<svg width="515" height="146" viewBox="0 0 515 146" fill="none" xmlns="http://www.w3.org/2000/svg">
<path d="M144.549 93.0672H133.92V124.699C133.948 126.435 134.219 127.786 134.731 128.754C135.243 129.693 136.012 130.348 137.036 130.718C138.061 131.088 139.341 131.272 140.878 131.272C141.874 131.272 142.813 131.23 143.695 131.145C144.577 131.059 145.346 130.988 146 130.931V144.292C144.492 144.776 142.827 145.175 141.006 145.488C139.213 145.829 137.25 146 135.115 146C129.396 146 124.843 144.52 121.456 141.56C118.098 138.601 116.405 133.706 116.377 126.876V93.0672H99.6864V145.231H82.0151V93.0672H71.4716V79.663H144.549V93.0672Z" fill="#7000FF"/>
<path fill-rule="evenodd" clip-rule="evenodd" d="M132.957 0C139.46 0 144.732 5.27208 144.732 11.7755V76.5409H53.4773V103.036H78.9895V110.886H53.4773V137.381H78.9895V145.231H11.7748C5.27177 145.231 2.37063e-08 139.959 0 133.456V11.7755C0 5.27208 5.27177 0 11.7748 0H132.957ZM7.84988 133.456C7.84989 135.624 9.60714 137.381 11.7748 137.381H45.6275V110.886H7.84988V133.456ZM7.84988 103.036H45.6275V76.5409H7.84988V103.036ZM7.84988 68.6905H45.6275V42.1956H7.84988V68.6905ZM53.4773 68.6905H91.2549V42.1956H53.4773V68.6905ZM99.1048 68.6905H136.882V42.1956H99.1048V68.6905ZM11.7748 7.85035C9.60714 7.85035 7.84988 9.60771 7.84988 11.7755V34.3453H136.882V11.7755C136.882 9.60771 135.125 7.85035 132.957 7.85035H11.7748Z" fill="#7000FF"/>
<path d="M226.376 32.816V25.904H266.824V32.816L257.352 33.84C257.267 39.0453 257.181 44.2933 257.096 49.584C257.096 54.8747 257.096 60.208 257.096 65.584V70.32C257.096 75.5253 257.096 80.816 257.096 86.192C257.181 91.4827 257.267 96.7733 257.352 102.064L266.824 103.088V110H226.376V103.088L235.336 102.192C235.507 96.9013 235.592 91.6107 235.592 86.32C235.592 81.0293 235.592 75.7813 235.592 70.576H208.328C208.328 76.2933 208.328 81.7547 208.328 86.96C208.413 92.08 208.499 97.1573 208.584 102.192L217.544 103.088V110H177.224V103.088L186.568 102.064C186.739 96.8587 186.824 91.6107 186.824 86.32C186.824 81.0293 186.824 75.696 186.824 70.32V65.584C186.824 60.2933 186.824 55.0027 186.824 49.712C186.824 44.4213 186.739 39.1307 186.568 33.84L177.224 32.816V25.904H217.544V32.816L208.584 33.712C208.499 38.9173 208.413 44.08 208.328 49.2C208.328 54.32 208.328 58.928 208.328 63.024H235.592C235.592 58.16 235.592 53.296 235.592 48.432C235.592 43.4827 235.507 38.576 235.336 33.712L226.376 32.816ZM321.495 111.792C314.071 111.792 309.378 108.72 307.415 102.576C304.684 105.477 302.039 107.781 299.479 109.488C297.004 111.109 293.548 111.92 289.111 111.92C284.162 111.92 280.108 110.512 276.951 107.696C273.879 104.88 272.343 100.827 272.343 95.536C272.343 92.464 273.026 89.6907 274.391 87.216C275.756 84.7413 278.231 82.4373 281.815 80.304C285.399 78.1707 290.476 76.1653 297.047 74.288C298.327 73.8613 299.82 73.4347 301.527 73.008C303.234 72.5813 304.983 72.1547 306.775 71.728V67.504C306.775 61.7867 306.05 57.904 304.599 55.856C303.234 53.808 300.503 52.784 296.407 52.784C295.81 52.784 295.255 52.784 294.743 52.784C294.231 52.784 293.634 52.8267 292.951 52.912L292.311 58.544C292.226 62.7253 291.244 65.7547 289.367 67.632C287.575 69.5093 285.442 70.448 282.967 70.448C278.274 70.448 275.415 68.3147 274.391 64.048C274.732 58.7573 277.42 54.448 282.455 51.12C287.49 47.792 294.615 46.128 303.831 46.128C312.023 46.128 317.868 48.0053 321.367 51.76C324.951 55.5147 326.743 61.7013 326.743 70.32V98.992C326.743 101.467 327.682 102.704 329.559 102.704C330.242 102.704 330.882 102.533 331.479 102.192C332.076 101.765 332.716 100.997 333.399 99.888L336.855 102.192C335.319 105.605 333.314 108.08 330.839 109.616C328.45 111.067 325.335 111.792 321.495 111.792ZM291.287 92.208C291.287 95.3653 292.012 97.712 293.463 99.248C294.999 100.784 296.834 101.552 298.967 101.552C299.906 101.552 300.887 101.339 301.911 100.912C302.935 100.485 304.556 99.504 306.775 97.968V77.232C305.666 77.5733 304.556 77.9573 303.447 78.384C302.423 78.7253 301.527 79.0667 300.759 79.408C297.858 80.6027 295.554 82.3093 293.847 84.528C292.14 86.6613 291.287 89.2213 291.287 92.208ZM339.831 110V103.984L346.871 102.576C346.956 99.4187 346.999 96.048 346.999 92.464C346.999 88.88 346.999 85.7653 346.999 83.12V75.568C346.999 73.1787 346.956 71.216 346.871 69.68C346.871 68.144 346.828 66.736 346.743 65.456C346.743 64.0907 346.7 62.5547 346.615 60.848L338.807 59.696V54.704L364.023 46.128L366.327 47.536L367.479 62.64C369.271 57.1787 371.788 53.0827 375.031 50.352C378.274 47.536 381.474 46.128 384.631 46.128C387.447 46.128 389.879 46.9387 391.927 48.56C393.975 50.096 395.255 52.4427 395.767 55.6C395.682 58.928 394.786 61.5307 393.079 63.408C391.372 65.2 389.239 66.096 386.679 66.096C383.095 66.096 379.81 64.0907 376.823 60.08L376.055 59.056C374.178 60.848 372.428 63.1093 370.807 65.84C369.271 68.5707 368.162 71.4293 367.479 74.416V83.12C367.479 85.7653 367.479 88.7947 367.479 92.208C367.479 95.6213 367.522 98.8213 367.607 101.808L377.719 103.984V110H339.831ZM431.159 33.328H428.215C428.13 38.6187 428.044 43.952 427.959 49.328C427.959 54.704 427.959 60.1227 427.959 65.584V70.704H431.671C437.303 70.704 441.527 68.912 444.343 65.328C447.159 61.6587 448.567 56.9227 448.567 51.12C448.567 45.232 447.031 40.7947 443.959 37.808C440.972 34.8213 436.706 33.328 431.159 33.328ZM396.599 32.816V25.904H431.415C440.29 25.904 447.458 26.9707 452.919 29.104C458.38 31.152 462.348 34.096 464.823 37.936C467.383 41.6907 468.663 46.128 468.663 51.248C468.663 56.112 467.468 60.592 465.079 64.688C462.775 68.6987 458.935 71.8987 453.559 74.288C448.183 76.6773 440.844 77.872 431.543 77.872H427.959C427.959 81.5413 427.959 85.424 427.959 89.52C428.044 93.5307 428.13 97.6693 428.215 101.936L439.607 103.088V110H396.599V103.088L406.199 102.064C406.37 96.8587 406.455 91.6107 406.455 86.32C406.455 81.0293 406.455 75.696 406.455 70.32V65.584C406.455 60.2933 406.455 55.0027 406.455 49.712C406.455 44.336 406.37 39.0453 406.199 33.84L396.599 32.816ZM474.715 110V103.984L481.627 102.448C481.712 99.376 481.755 96.048 481.755 92.464C481.755 88.88 481.755 85.7653 481.755 83.12V76.976C481.755 73.4773 481.712 70.576 481.627 68.272C481.627 65.8827 481.542 63.408 481.371 60.848L473.435 59.696V54.704L500.315 46.128L502.491 47.536L502.107 66.096V83.12C502.107 85.7653 502.107 88.9227 502.107 92.592C502.107 96.176 502.15 99.5467 502.235 102.704L508.635 103.984V110H474.715ZM491.739 36.656C488.752 36.656 486.192 35.7173 484.059 33.84C481.926 31.8773 480.859 29.4453 480.859 26.544C480.859 23.5573 481.926 21.1253 484.059 19.248C486.192 17.2853 488.752 16.304 491.739 16.304C494.726 16.304 497.286 17.2853 499.419 19.248C501.552 21.1253 502.619 23.5573 502.619 26.544C502.619 29.4453 501.552 31.8773 499.419 33.84C497.286 35.7173 494.726 36.656 491.739 36.656Z" fill="white"/>
</svg>
